<svg xmlns="http://www.w3.org/2000/svg" xmlns:xlink="http://www.w3.org/1999/xlink" version="1.1" width="256" height="256" viewBox="0 0 256 256" xml:space="preserve">

<defs>
</defs>
<g style="stroke: none; stroke-width: 0; stroke-dasharray: none; stroke-linecap: butt; stroke-linejoin: miter; stroke-miterlimit: 10; fill: none; fill-rule: nonzero; opacity: 1;" transform="translate(1.4065934065934016 1.4065934065934016) scale(2.81 2.81)" >
	<path d="M 71.361 35.557 C 69.67 23.59 59.257 14.281 46.916 14.281 h -3.832 c -12.341 0 -22.753 9.309 -24.444 21.276 C 8.234 36.311 0 45.018 0 55.611 c 0 11.087 9.02 20.107 20.107 20.107 h 15.428 c 1.657 0 3 -1.343 3 -3 s -1.343 -3 -3 -3 H 20.107 C 12.329 69.719 6 63.391 6 55.611 s 6.329 -14.107 14.107 -14.107 h 1.297 c 1.631 0 2.963 -1.303 3 -2.934 c 0.221 -10.084 8.601 -18.289 18.68 -18.289 h 3.832 c 10.078 0 18.459 8.205 18.681 18.289 c 0.035 1.631 1.368 2.934 2.999 2.934 h 1.297 C 77.672 41.504 84 47.832 84 55.611 s -6.328 14.107 -14.107 14.107 H 55.419 C 51.328 69.719 48 66.391 48 62.3 V 47.425 l 3.268 3.268 c 0.586 0.586 1.354 0.879 2.121 0.879 s 1.535 -0.293 2.121 -0.879 c 1.172 -1.171 1.172 -3.07 0 -4.242 l -8.386 -8.386 c -0.543 -0.545 -1.294 -0.882 -2.124 -0.882 c -0.827 0 -1.576 0.335 -2.118 0.876 c -0.001 0.001 -0.002 0.002 -0.003 0.003 L 34.49 46.45 c -1.171 1.172 -1.171 3.071 0 4.242 c 1.171 1.172 3.071 1.172 4.243 0 L 42 47.425 V 62.3 c 0 7.399 6.02 13.419 13.419 13.419 h 14.474 C 80.979 75.719 90 66.698 90 55.611 C 90 45.018 81.765 36.312 71.361 35.557 z" style="stroke: none; stroke-width: 1; stroke-dasharray: none; stroke-linecap: butt; stroke-linejoin: miter; stroke-miterlimit: 10; fill: rgb(229,187,10); fill-rule: nonzero; opacity: 1;" transform=" matrix(1 0 0 1 0 0) " stroke-linecap="round" />
</g>
</svg>